<?xml version="1.0" encoding="iso-8859-1"?>
<!-- Generator: Adobe Illustrator 19.0.0, SVG Export Plug-In . SVG Version: 6.00 Build 0)  -->
<svg version="1.1" id="Capa_1" xmlns="http://www.w3.org/2000/svg" xmlns:xlink="http://www.w3.org/1999/xlink" x="0px" y="0px"
	 viewBox="0 0 45 45" style="enable-background:new 0 0 45 45;" xml:space="preserve">
<g>
	<g>
		<path style="fill:#ffffff;" d="M42.736,28.323C42.547,28.117,42.279,28,42,28h-1.341l-2.143-5H40c0.553,0,1-0.448,1-1V11
			c0-0.062-0.025-0.116-0.035-0.176c-0.007-0.037,0.005-0.075-0.007-0.111l-3-10C37.831,0.29,37.441,0,37,0H8
			C7.559,0,7.169,0.29,7.042,0.713l-3,10c-0.011,0.037,0,0.074-0.007,0.112C4.024,10.884,4,10.938,4,11v11c0,0.552,0.447,1,1,1
			h1.484l-2.143,5H3c-0.279,0-0.547,0.117-0.736,0.323c-0.189,0.206-0.283,0.481-0.26,0.76l1,12C3.047,41.602,3.479,42,4,42h1v2
			c0,0.552,0.447,1,1,1h33c0.553,0,1-0.448,1-1v-2h1c0.521,0,0.953-0.398,0.996-0.917l1-12
			C43.02,28.804,42.925,28.529,42.736,28.323z M8.744,2h27.512l2.4,8H6.344L8.744,2z M6,12h33v9h-2H8H6C6,21,6,12,6,12z M8.659,23
			h27.682l2.143,5H6.517L8.659,23z M38,43H7v-1h31V43z M40.08,40H39H6H4.92L4.087,30H5h35h0.913L40.08,40z"/>
		<rect style="fill:#ffffff;" x="19" y="13" width="6" height="2"/>
		<rect style="fill:#ffffff;" x="19" y="32" width="6" height="2"/>
	</g>
</g>
<g>
</g>
<g>
</g>
<g>
</g>
<g>
</g>
<g>
</g>
<g>
</g>
<g>
</g>
<g>
</g>
<g>
</g>
<g>
</g>
<g>
</g>
<g>
</g>
<g>
</g>
<g>
</g>
<g>
</g>
</svg>
