<?xml version="1.0" encoding="iso-8859-1"?>
<!-- Generator: Adobe Illustrator 17.1.0, SVG Export Plug-In . SVG Version: 6.00 Build 0)  -->
<!DOCTYPE svg PUBLIC "-//W3C//DTD SVG 1.1//EN" "http://www.w3.org/Graphics/SVG/1.1/DTD/svg11.dtd">
<svg version="1.1" id="Capa_1" xmlns="http://www.w3.org/2000/svg" xmlns:xlink="http://www.w3.org/1999/xlink" x="0px" y="0px"
	 viewBox="0 0 512 512" style="enable-background:new 0 0 512 512;" xml:space="preserve">
<g>
	<path style="fill:#ffffff;" d="M504,156c-4.418,0-8,3.582-8,8v216c0,22.056-17.944,40-40,40H56c-22.056,0-40-17.944-40-40V164c0-4.418-3.582-8-8-8
		s-8,3.582-8,8v216c0,30.878,25.122,56,56,56h400c30.878,0,56-25.122,56-56V164C512,159.582,508.418,156,504,156z"/>
	<path style="fill:#ffffff;" d="M7.552,141.231L7.552,141.231l218.089,140.703c9.221,5.949,19.79,8.924,30.359,8.924s21.138-2.975,30.359-8.924
		l218.089-140.703c5.055-3.26,7.849-8.865,7.292-14.626c-1.331-13.756-7.729-26.511-18.018-35.917C483.36,81.217,469.964,76,456,76
		H56c-13.964,0-27.36,5.217-37.722,14.689C7.989,100.094,1.59,112.85,0.26,126.606C-0.297,132.367,2.497,137.971,7.552,141.231z
		 M56,92h400c20.244,0,37.645,15.69,39.778,35.784c-0.001,0.001-0.002,0.001-0.003,0.002l-218.09,140.703
		c-13.174,8.499-30.196,8.499-43.37,0L16.225,127.786c0,0.001-0.002-0.001-0.003-0.002C18.355,107.689,35.756,92,56,92z"/>
</g>
<g>
</g>
<g>
</g>
<g>
</g>
<g>
</g>
<g>
</g>
<g>
</g>
<g>
</g>
<g>
</g>
<g>
</g>
<g>
</g>
<g>
</g>
<g>
</g>
<g>
</g>
<g>
</g>
<g>
</g>
</svg>
